<?xml version="1.0" encoding="utf-8"?>
<svg version="1.1" xmlns:xlink="http://www.w3.org/1999/xlink" width="175px" height="175px" xmlns="http://www.w3.org/2000/svg">
  <defs>
    <mask fill="white" id="clip857">
      <path d="M 87.5 0  C 135.8249168396 0  175 39.1750831604004  175 87.5  C 175 135.8249168396  135.8249168396 175  87.5 175  C 39.1750831604004 175  0 135.8249168396  0 87.5  C 0 39.1750831604004  39.1750831604004 0  87.5 0  Z " fill-rule="evenodd" />
    </mask>
  </defs>
  <g transform="matrix(1 0 0 1 -403 -180 )">
    <path d="M 87.5 0  C 135.8249168396 0  175 39.1750831604004  175 87.5  C 175 135.8249168396  135.8249168396 175  87.5 175  C 39.1750831604004 175  0 135.8249168396  0 87.5  C 0 39.1750831604004  39.1750831604004 0  87.5 0  Z " fill-rule="nonzero" fill="#ffffff" stroke="none" fill-opacity="0" transform="matrix(1 0 0 1 403 180 )" />
    <path d="M 87.5 0  C 135.8249168396 0  175 39.1750831604004  175 87.5  C 175 135.8249168396  135.8249168396 175  87.5 175  C 39.1750831604004 175  0 135.8249168396  0 87.5  C 0 39.1750831604004  39.1750831604004 0  87.5 0  Z " stroke-width="10" stroke-dasharray="5,5" stroke="#1ceced" fill="none" transform="matrix(1 0 0 1 403 180 )" mask="url(#clip857)" />
  </g>
</svg>