<?xml version="1.0" encoding="utf-8"?>
<svg version="1.1" xmlns:xlink="http://www.w3.org/1999/xlink" width="40px" height="40px" xmlns="http://www.w3.org/2000/svg">
  <defs>
    <mask fill="white" id="clip871">
      <path d="M 40 37.3099450931279  L 37.3224690528374 40  L 2.67753094716264 40  L 0 37.3099450931279  L 0 29.4525349563571  L 2 28.0387020901267  L 2 11.9861930980763  L 0 10.4472733659669  L 0 2.67753094716264  L 2.67753094716264 0  L 37.3224690528374 0  L 40 2.67753094716264  L 40 37.3099450931279  Z " fill-rule="evenodd" />
    </mask>
  </defs>
  <g transform="matrix(1 0 0 1 -1865 -24 )">
    <path d="M 40 37.3099450931279  L 37.3224690528374 40  L 2.67753094716264 40  L 0 37.3099450931279  L 0 29.4525349563571  L 2 28.0387020901267  L 2 11.9861930980763  L 0 10.4472733659669  L 0 2.67753094716264  L 2.67753094716264 0  L 37.3224690528374 0  L 40 2.67753094716264  L 40 37.3099450931279  Z " fill-rule="nonzero" fill="#ffffff" stroke="none" fill-opacity="0" transform="matrix(1 0 0 1 1865 24 )" />
    <path d="M 40 37.3099450931279  L 37.3224690528374 40  L 2.67753094716264 40  L 0 37.3099450931279  L 0 29.4525349563571  L 2 28.0387020901267  L 2 11.9861930980763  L 0 10.4472733659669  L 0 2.67753094716264  L 2.67753094716264 0  L 37.3224690528374 0  L 40 2.67753094716264  L 40 37.3099450931279  Z " stroke-width="1.1599999666214" stroke="#009dff" fill="none" transform="matrix(1 0 0 1 1865 24 )" mask="url(#clip871)" />
  </g>
</svg>