<?xml version="1.0" encoding="utf-8"?>
<svg version="1.1" xmlns:xlink="http://www.w3.org/1999/xlink" width="93px" height="73px" xmlns="http://www.w3.org/2000/svg">
  <defs>
    <linearGradient gradientUnits="userSpaceOnUse" x1="719" y1="546" x2="719" y2="619" id="LinearGradient222">
      <stop id="Stop223" stop-color="#006a76" offset="0" />
      <stop id="Stop224" stop-color="#002c41" stop-opacity="0.698039215686274" offset="0.25" />
      <stop id="Stop225" stop-color="#000a25" stop-opacity="0" offset="0.5" />
      <stop id="Stop226" stop-color="#002139" stop-opacity="0.698039215686274" offset="0.73" />
      <stop id="Stop227" stop-color="#005262" offset="1" />
    </linearGradient>
  </defs>
  <g transform="matrix(1 0 0 1 -719 -546 )">
    <path d="M 719.815294146538 549.359999895096  A 2.54470574855804 2.54470574855804 0 0 1 722.359999895096 546.815294146538 L 808.640000104904 546.815294146538  A 2.54470574855804 2.54470574855804 0 0 1 811.184705853462 549.359999895096 L 811.184705853462 615.640000104904  A 2.54470574855804 2.54470574855804 0 0 1 808.640000104904 618.184705853462 L 722.359999895096 618.184705853462  A 2.54470574855804 2.54470574855804 0 0 1 719.815294146538 615.640000104904 L 719.815294146538 549.359999895096  Z " fill-rule="nonzero" fill="url(#LinearGradient222)" stroke="none" />
    <path d="M 719.407647073269 549.359999895096  A 2.95235282182693 2.95235282182693 0 0 1 722.359999895096 546.407647073269 L 808.640000104904 546.407647073269  A 2.95235282182693 2.95235282182693 0 0 1 811.592352926731 549.359999895096 L 811.592352926731 615.640000104904  A 2.95235282182693 2.95235282182693 0 0 1 808.640000104904 618.592352926731 L 722.359999895096 618.592352926731  A 2.95235282182693 2.95235282182693 0 0 1 719.407647073269 615.640000104904 L 719.407647073269 549.359999895096  Z " stroke-width="0.815294146537781" stroke="#23fff9" fill="none" stroke-opacity="0.274509803921569" />
  </g>
</svg>