<?xml version="1.0" encoding="utf-8"?>
<svg version="1.1" xmlns:xlink="http://www.w3.org/1999/xlink" width="46px" height="66px" xmlns="http://www.w3.org/2000/svg">
  <defs>
    <linearGradient gradientUnits="userSpaceOnUse" x1="0" y1="0" x2="0" y2="66" id="LinearGradient328">
      <stop id="Stop329" stop-color="#66ffff" offset="0" />
      <stop id="Stop330" stop-color="#66ffff" stop-opacity="0" offset="1" />
    </linearGradient>
  </defs>
  <g transform="matrix(1 0 0 1 -803 -173 )">
    <path d="M 29.186206738884 6.15113352165464  C 29.186206738884 6.15113352165464  23.4758629361378 0.166246826191326  23.4758629361378 0.166246826191326  C 23.1586209787126 -0.0554156087304419  22.8413790212874 -0.0554156087304419  22.5241370638622 0.166246826191326  C 22.5241370638622 0.166246826191326  16.813793261116 6.15113352165464  16.813793261116 6.15113352165464  L 23 13.0226694805172  L 29.186206738884 6.15113352165464  Z M 13.3241374448925 30.5340046970636  C 13.3241374448925 30.5340046970636  7.61379268957061 24.5491189541759  7.61379268957061 24.5491189541759  C 7.29655120843323 24.3274565192541  6.97931020358362 24.3274565192541  6.66206872244623 24.5491189541759  C 6.66206872244623 24.5491189541759  0.951724086196327 30.5340046970636  0.951724086196327 30.5340046970636  L 7.13793070600842 37.4055401796384  L 13.3241374448925 30.5340046970636  Z M 0 32.085641741516  C 0 32.085641741516  0 58.6851377424305  0 58.6851377424305  C 0 59.128462612274  0.158620666148728 59.3501231420446  0.317241332297456 59.5717874821176  C 0.317241332297456 59.5717874821176  7 65.7783318496247  7 65.7783318496247  L 7 39.1788396590126  L 0 32.085641741516  Z M 14.2758614120168 58.9067982722011  C 14.2758614120168 59.3501231420446  14.1172404333043 59.5717836718152  13.9586194545917 59.7934480118881  C 13.9586194545917 59.7934480118881  8 66  8 66  L 8 39.4005001887832  L 14.2758614120168 32.3073022712866  C 14.2758614120168 32.3073022712866  14.2758614120168 58.9067982722011  14.2758614120168 58.9067982722011  Z M 23 65.7783394702294  C 23 65.7783394702294  16.1793093462656 59.5717874821176  16.1793093462656 59.5717874821176  C 16.020688367553 59.350126952347  15.862068341416 59.128462612274  15.862068341416 58.6851377424305  C 15.862068341416 58.6851377424305  15.862068341416 7.70277056610701  15.862068341416 7.70277056610701  L 23 14.795969912467  L 23 65.7783394702294  Z M 23 15.0176323473887  L 23 66  C 23 66  29.8206887485833 59.7934518221905  29.8206887485833 59.7934518221905  C 29.9793097272958 59.5717874821176  30.1379307060084 59.350126952347  30.1379307060084 58.9068020825034  C 30.1379307060084 58.9068020825034  30.1379307060084 7.92443300102878  30.1379307060084 7.92443300102878  L 23 15.0176323473887  Z M 38 65.7783318496247  C 38 65.7783318496247  32.041376735106 59.5717874821176  32.041376735106 59.5717874821176  C 31.8827576615446 59.3501231420446  31.724136682832 59.128462612274  31.724136682832 58.6851377424305  C 31.724136682832 58.6851377424305  31.724136682832 21.2241805251982  31.724136682832 21.2241805251982  L 38 28.0957179129242  L 38 65.7783318496247  Z M 45.0482741277245 19.4508810458241  C 45.0482741277245 19.4508810458241  39.3379303249782 13.4659953029364  39.3379303249782 13.4659953029364  C 39.020688367553 13.2443328680146  38.7034464101278 13.2443328680146  38.3862044527027 13.4659953029364  C 38.3862044527027 13.4659953029364  32.6758606499564 19.4508810458241  32.6758606499564 19.4508810458241  L 38.8620654836893 26.3224184335501  L 45.0482741277245 19.4508810458241  Z M 45.6827580425748 59.7934480118881  C 45.6827580425748 59.7934480118881  39 66  39 66  L 39 28.3173784426948  L 46 21.2241805251982  C 46 21.2241805251982  46 58.9067982722011  46 58.9067982722011  C 46 59.3501231420446  45.8413771161363 59.5717836718152  45.6827580425748 59.7934480118881  Z " fill-rule="nonzero" fill="url(#LinearGradient328)" stroke="none" transform="matrix(1 0 0 1 803 173 )" />
  </g>
</svg>