<?xml version="1.0" encoding="utf-8"?>
<svg version="1.1" xmlns:xlink="http://www.w3.org/1999/xlink" width="131px" height="131px" xmlns="http://www.w3.org/2000/svg">
  <defs>
    <mask fill="white" id="clip337">
      <path d="M 65.5 0  C 101.674649553005 0  131 29.3253504469954  131 65.5  C 131 101.674649553005  101.674649553005 131  65.5 131  C 29.3253504469954 131  0 101.674649553005  0 65.5  C 0 29.3253504469954  29.3253504469954 0  65.5 0  Z " fill-rule="evenodd" />
    </mask>
  </defs>
  <g transform="matrix(1 0 0 1 -226 -280 )">
    <path d="M 65.5 0  C 101.674649553005 0  131 29.3253504469954  131 65.5  C 131 101.674649553005  101.674649553005 131  65.5 131  C 29.3253504469954 131  0 101.674649553005  0 65.5  C 0 29.3253504469954  29.3253504469954 0  65.5 0  Z " fill-rule="nonzero" fill="#ffffff" stroke="none" fill-opacity="0" transform="matrix(1 0 0 1 226 280 )" />
    <path d="M 65.5 0  C 101.674649553005 0  131 29.3253504469954  131 65.5  C 131 101.674649553005  101.674649553005 131  65.5 131  C 29.3253504469954 131  0 101.674649553005  0 65.5  C 0 29.3253504469954  29.3253504469954 0  65.5 0  Z " stroke-width="8.725022315979" stroke-dasharray="13.0875334739685,4.3625111579895" stroke="#00e0db" fill="none" transform="matrix(1 0 0 1 226 280 )" mask="url(#clip337)" />
  </g>
</svg>