<?xml version="1.0" encoding="utf-8"?>
<svg version="1.1" xmlns:xlink="http://www.w3.org/1999/xlink" width="190px" height="190px" xmlns="http://www.w3.org/2000/svg">
  <defs>
    <mask fill="white" id="clip312">
      <path d="M 95 0  C 147.46705219508 0  190 42.5329478049196  190 95  C 190 147.46705219508  147.46705219508 190  95 190  C 42.5329478049196 190  0 147.46705219508  0 95  C 0 42.5329478049196  42.5329478049196 0  95 0  Z " fill-rule="evenodd" />
    </mask>
  </defs>
  <g transform="matrix(1 0 0 1 -345 -367 )">
    <path d="M 95 0  C 147.46705219508 0  190 42.5329478049196  190 95  C 190 147.46705219508  147.46705219508 190  95 190  C 42.5329478049196 190  0 147.46705219508  0 95  C 0 42.5329478049196  42.5329478049196 0  95 0  Z " fill-rule="nonzero" fill="#ffffff" stroke="none" fill-opacity="0" transform="matrix(1 0 0 1 345 367 )" />
    <path d="M 95 0  C 147.46705219508 0  190 42.5329478049196  190 95  C 190 147.46705219508  147.46705219508 190  95 190  C 42.5329478049196 190  0 147.46705219508  0 95  C 0 42.5329478049196  42.5329478049196 0  95 0  Z " stroke-width="14.5027751922607" stroke-dasharray="7.25138759613037,7.25138759613037" stroke="#1ceced" fill="none" transform="matrix(1 0 0 1 345 367 )" mask="url(#clip312)" />
  </g>
</svg>