<?xml version="1.0" encoding="utf-8"?>
<svg version="1.1" xmlns:xlink="http://www.w3.org/1999/xlink" width="189px" height="189px" xmlns="http://www.w3.org/2000/svg">
  <defs>
    <linearGradient gradientUnits="userSpaceOnUse" x1="0" y1="5.24580379135386E-15" x2="0" y2="189" id="LinearGradient331">
      <stop id="Stop332" stop-color="#00133c" offset="0" />
      <stop id="Stop333" stop-color="#030d25" offset="0.5" />
      <stop id="Stop334" stop-color="#022041" offset="1" />
    </linearGradient>
    <mask fill="white" id="clip335">
      <path d="M 94.5 0  C 146.690910623052 0  189 42.3090893769482  189 94.5  C 189 146.690910623052  146.690910623052 189  94.5 189  C 42.3090893769482 189  0 146.690910623052  0 94.5  C 0 42.3090893769482  42.3090893769482 0  94.5 0  Z " fill-rule="evenodd" />
    </mask>
  </defs>
  <g transform="matrix(1 0 0 1 -135 -10 )">
    <path d="M 94.5 0  C 146.690910623052 0  189 42.3090893769482  189 94.5  C 189 146.690910623052  146.690910623052 189  94.5 189  C 42.3090893769482 189  0 146.690910623052  0 94.5  C 0 42.3090893769482  42.3090893769482 0  94.5 0  Z " fill-rule="nonzero" fill="url(#LinearGradient331)" stroke="none" transform="matrix(1 0 0 1 135 10 )" />
    <path d="M 94.5 0  C 146.690910623052 0  189 42.3090893769482  189 94.5  C 189 146.690910623052  146.690910623052 189  94.5 189  C 42.3090893769482 189  0 146.690910623052  0 94.5  C 0 42.3090893769482  42.3090893769482 0  94.5 0  Z " stroke-width="2.23275756835938" stroke="#1ceced" fill="none" transform="matrix(1 0 0 1 135 10 )" mask="url(#clip335)" />
  </g>
</svg>