<?xml version="1.0" encoding="utf-8"?>
<svg version="1.1" xmlns:xlink="http://www.w3.org/1999/xlink" width="166px" height="166px" xmlns="http://www.w3.org/2000/svg">
  <defs>
    <mask fill="white" id="clip369">
      <path d="M 83 0  C 128.839633747686 0  166 37.1603662523141  166 83  C 166 128.839633747686  128.839633747686 166  83 166  C 37.1603662523141 166  0 128.839633747686  0 83  C 0 37.1603662523141  37.1603662523141 0  83 0  Z " fill-rule="evenodd" />
    </mask>
  </defs>
  <g transform="matrix(1 0 0 1 -388 -173 )">
    <path d="M 83 0  C 128.839633747686 0  166 37.1603662523141  166 83  C 166 128.839633747686  128.839633747686 166  83 166  C 37.1603662523141 166  0 128.839633747686  0 83  C 0 37.1603662523141  37.1603662523141 0  83 0  Z " fill-rule="nonzero" fill="#ffffff" stroke="none" fill-opacity="0" transform="matrix(1 0 0 1 388 173 )" />
    <path d="M 83 0  C 128.839633747686 0  166 37.1603662523141  166 83  C 166 128.839633747686  128.839633747686 166  83 166  C 37.1603662523141 166  0 128.839633747686  0 83  C 0 37.1603662523141  37.1603662523141 0  83 0  Z " stroke-width="8.725022315979" stroke="#00e0db" fill="none" transform="matrix(1 0 0 1 388 173 )" mask="url(#clip369)" />
  </g>
</svg>