<?xml version="1.0" encoding="utf-8"?>
<svg version="1.1" xmlns:xlink="http://www.w3.org/1999/xlink" width="222px" height="222px" xmlns="http://www.w3.org/2000/svg">
  <defs>
    <mask fill="white" id="clip311">
      <path d="M 111 0  C 172.303607563816 0  222 49.6963924361843  222 111  C 222 172.303607563816  172.303607563816 222  111 222  C 49.6963924361843 222  0 172.303607563816  0 111  C 0 49.6963924361843  49.6963924361843 0  111 0  Z " fill-rule="evenodd" />
    </mask>
  </defs>
  <g transform="matrix(1 0 0 1 -1055 -184 )">
    <path d="M 111 0  C 172.303607563816 0  222 49.6963924361843  222 111  C 222 172.303607563816  172.303607563816 222  111 222  C 49.6963924361843 222  0 172.303607563816  0 111  C 0 49.6963924361843  49.6963924361843 0  111 0  Z " fill-rule="nonzero" fill="#ffffff" stroke="none" fill-opacity="0" transform="matrix(1 0 0 1 1055 184 )" />
    <path d="M 111 0  C 172.303607563816 0  222 49.6963924361843  222 111  C 222 172.303607563816  172.303607563816 222  111 222  C 49.6963924361843 222  0 172.303607563816  0 111  C 0 49.6963924361843  49.6963924361843 0  111 0  Z " stroke-width="25.3611240386963" stroke-dasharray="12.6805620193481,12.6805620193481" stroke="#111523" fill="none" transform="matrix(1 0 0 1 1055 184 )" mask="url(#clip311)" />
  </g>
</svg>