<?xml version="1.0" encoding="utf-8"?>
<svg version="1.1" xmlns:xlink="http://www.w3.org/1999/xlink" width="106px" height="106px" xmlns="http://www.w3.org/2000/svg">
  <defs>
    <mask fill="white" id="clip405">
      <path d="M 53 0  C 82.2710918417766 0  106 23.7289081582234  106 53  C 106 82.2710918417766  82.2710918417766 106  53 106  C 23.7289081582234 106  0 82.2710918417766  0 53  C 0 23.7289081582234  23.7289081582234 0  53 0  Z " fill-rule="evenodd" />
    </mask>
  </defs>
  <g transform="matrix(1 0 0 1 24 -478 )">
    <path d="M 53 0  C 82.2710918417766 0  106 23.7289081582234  106 53  C 106 82.2710918417766  82.2710918417766 106  53 106  C 23.7289081582234 106  0 82.2710918417766  0 53  C 0 23.7289081582234  23.7289081582234 0  53 0  Z " fill-rule="nonzero" fill="#ffffff" stroke="none" fill-opacity="0" transform="matrix(1 0 0 1 -24 478 )" />
    <path d="M 53 0  C 82.2710918417766 0  106 23.7289081582234  106 53  C 106 82.2710918417766  82.2710918417766 106  53 106  C 23.7289081582234 106  0 82.2710918417766  0 53  C 0 23.7289081582234  23.7289081582234 0  53 0  Z " stroke-width="7.06726837158203" stroke-dasharray="3.53363418579102,3.53363418579102" stroke="#00e0db" fill="none" transform="matrix(1 0 0 1 -24 478 )" mask="url(#clip405)" />
  </g>
</svg>