<?xml version="1.0" encoding="utf-8"?>
<svg version="1.1" xmlns:xlink="http://www.w3.org/1999/xlink" width="140px" height="140px" xmlns="http://www.w3.org/2000/svg">
  <defs>
    <mask fill="white" id="clip437">
      <path d="M 70 0  C 108.65993191716 0  140 31.3400680828405  140 70  C 140 108.65993191716  108.65993191716 140  70 140  C 31.3400680828405 140  0 108.65993191716  0 70  C 0 31.3400680828405  31.3400680828405 0  70 0  Z " fill-rule="evenodd" />
    </mask>
  </defs>
  <g transform="matrix(1 0 0 1 -888 -136 )">
    <path d="M 70 0  C 108.65993191716 0  140 31.3400680828405  140 70  C 140 108.65993191716  108.65993191716 140  70 140  C 31.3400680828405 140  0 108.65993191716  0 70  C 0 31.3400680828405  31.3400680828405 0  70 0  Z " fill-rule="nonzero" fill="#ffffff" stroke="none" fill-opacity="0" transform="matrix(1 0 0 1 888 136 )" />
    <path d="M 70 0  C 108.65993191716 0  140 31.3400680828405  140 70  C 140 108.65993191716  108.65993191716 140  70 140  C 31.3400680828405 140  0 108.65993191716  0 70  C 0 31.3400680828405  31.3400680828405 0  70 0  Z " stroke-width="3.30380630493164" stroke="#00e0db" fill="none" transform="matrix(1 0 0 1 888 136 )" mask="url(#clip437)" />
  </g>
</svg>