<?xml version="1.0" encoding="utf-8"?>
<svg version="1.1" xmlns:xlink="http://www.w3.org/1999/xlink" width="153px" height="153px" xmlns="http://www.w3.org/2000/svg">
  <defs>
    <mask fill="white" id="clip339">
      <path d="M 76.5 0  C 118.749782042849 0  153 34.2502179571509  153 76.5  C 153 118.749782042849  118.749782042849 153  76.5 153  C 34.2502179571509 153  0 118.749782042849  0 76.5  C 0 34.2502179571509  34.2502179571509 0  76.5 0  Z " fill-rule="evenodd" />
    </mask>
  </defs>
  <g transform="matrix(1 0 0 1 -543 -28 )">
    <path d="M 76.5 0  C 118.749782042849 0  153 34.2502179571509  153 76.5  C 153 118.749782042849  118.749782042849 153  76.5 153  C 34.2502179571509 153  0 118.749782042849  0 76.5  C 0 34.2502179571509  34.2502179571509 0  76.5 0  Z " fill-rule="nonzero" fill="#ffffff" stroke="none" fill-opacity="0" transform="matrix(1 0 0 1 543 28 )" />
    <path d="M 76.5 0  C 118.749782042849 0  153 34.2502179571509  153 76.5  C 153 118.749782042849  118.749782042849 153  76.5 153  C 34.2502179571509 153  0 118.749782042849  0 76.5  C 0 34.2502179571509  34.2502179571509 0  76.5 0  Z " stroke-width="8.725022315979" stroke-dasharray="13.0875334739685,4.3625111579895" stroke="#00e0db" fill="none" transform="matrix(1 0 0 1 543 28 )" mask="url(#clip339)" />
  </g>
</svg>