<?xml version="1.0" encoding="utf-8"?>
<!-- Generator: Adobe Illustrator 16.0.0, SVG Export Plug-In . SVG Version: 6.00 Build 0)  -->
<!DOCTYPE svg PUBLIC "-//W3C//DTD SVG 1.1//EN" "http://www.w3.org/Graphics/SVG/1.1/DTD/svg11.dtd">
<svg version="1.1" id="图层_1" xmlns="http://www.w3.org/2000/svg" xmlns:xlink="http://www.w3.org/1999/xlink" x="0px" y="0px"
	 width="840.715px" height="840.719px" viewBox="0 0 840.715 840.719" enable-background="new 0 0 840.715 840.719"
	 xml:space="preserve">
<g>
	
		<linearGradient id="SVGID_1_" gradientUnits="userSpaceOnUse" x1="661.0723" y1="778.6572" x2="111.4553" y2="94.106" gradientTransform="matrix(1 0 0 -1 -0.0449 840.4785)">
		<stop  offset="0" style="stop-color:#5C5C5C"/>
		<stop  offset="0.4945" style="stop-color:#F5F5F5"/>
		<stop  offset="1" style="stop-color:#5C5C5C"/>
	</linearGradient>
	<path fill="url(#SVGID_1_)" d="M707.469,390.604c0,171.442-138.979,310.422-310.418,310.422
		c-171.439,0-310.419-138.979-310.419-310.421c0-171.438,138.98-310.417,310.419-310.417
		C568.488,80.187,707.469,219.167,707.469,390.604z"/>
	
		<linearGradient id="SVGID_2_" gradientUnits="userSpaceOnUse" x1="199.6406" y1="252.4165" x2="594.5536" y2="647.3294" gradientTransform="matrix(1 0 0 -1 -0.0449 840.4785)">
		<stop  offset="0" style="stop-color:#E5E1DF"/>
		<stop  offset="0" style="stop-color:#D8D8D8"/>
		<stop  offset="0" style="stop-color:#D1D3D4"/>
		<stop  offset="0.0586" style="stop-color:#E9EAEB"/>
		<stop  offset="0.1067" style="stop-color:#FFFFFF"/>
		<stop  offset="0.1279" style="stop-color:#F8F8F8"/>
		<stop  offset="0.1634" style="stop-color:#E1E0E0"/>
		<stop  offset="0.2088" style="stop-color:#BCBBBC"/>
		<stop  offset="0.2472" style="stop-color:#979A9C"/>
		<stop  offset="0.2708" style="stop-color:#999C9E"/>
		<stop  offset="0.285" style="stop-color:#A1A3A5"/>
		<stop  offset="0.2967" style="stop-color:#AEAFB1"/>
		<stop  offset="0.307" style="stop-color:#BFC0C2"/>
		<stop  offset="0.3146" style="stop-color:#D1D3D4"/>
		<stop  offset="0.3618" style="stop-color:#C8C8C9"/>
		<stop  offset="0.4413" style="stop-color:#AEADAC"/>
		<stop  offset="0.5434" style="stop-color:#858282"/>
		<stop  offset="0.6461" style="stop-color:#58595B"/>
		<stop  offset="0.6784" style="stop-color:#616264"/>
		<stop  offset="0.7326" style="stop-color:#7B7D7F"/>
		<stop  offset="0.7416" style="stop-color:#808285"/>
		<stop  offset="0.7466" style="stop-color:#8A8A8D"/>
		<stop  offset="0.7677" style="stop-color:#AFACAD"/>
		<stop  offset="0.7892" style="stop-color:#CCC9CA"/>
		<stop  offset="0.8112" style="stop-color:#E3E1E1"/>
		<stop  offset="0.8336" style="stop-color:#F3F2F3"/>
		<stop  offset="0.8568" style="stop-color:#FDFDFD"/>
		<stop  offset="0.882" style="stop-color:#FFFFFF"/>
		<stop  offset="0.904" style="stop-color:#E3E3E4"/>
		<stop  offset="0.9266" style="stop-color:#CCCDCE"/>
		<stop  offset="0.9498" style="stop-color:#BCBDBF"/>
		<stop  offset="0.9738" style="stop-color:#B2B4B7"/>
		<stop  offset="1" style="stop-color:#AFB1B4"/>
	</linearGradient>
	<path fill="url(#SVGID_2_)" d="M397.05,669.982c-154.047,0-279.376-125.328-279.376-279.379
		c0-154.045,125.329-279.374,279.376-279.374c154.049,0,279.379,125.328,279.379,279.374
		C676.43,544.654,551.1,669.982,397.05,669.982L397.05,669.982z"/>
	
		<radialGradient id="SVGID_3_" cx="399.1587" cy="453.0771" r="266.4417" gradientTransform="matrix(1 0 0 -1 -0.0449 840.4785)" gradientUnits="userSpaceOnUse">
		<stop  offset="0" style="stop-color:#17FF51"/>
		<stop  offset="0.1007" style="stop-color:#14F94E"/>
		<stop  offset="0.2337" style="stop-color:#0DE944"/>
		<stop  offset="0.3842" style="stop-color:#01CD34"/>
		<stop  offset="0.3901" style="stop-color:#00CC33"/>
		<stop  offset="0.6648" style="stop-color:#009926"/>
		<stop  offset="0.8077" style="stop-color:#00661A"/>
		<stop  offset="1" style="stop-color:#000000"/>
	</radialGradient>
	<path fill="url(#SVGID_3_)" d="M399.112,653.842c-146.917,0-266.441-119.529-266.441-266.443
		c0-146.916,119.524-266.438,266.441-266.438c146.917,0,266.445,119.522,266.445,266.438
		C665.557,534.313,546.029,653.842,399.112,653.842L399.112,653.842z"/>
	<g>
		<g>
			
				<linearGradient id="SVGID_4_" gradientUnits="userSpaceOnUse" x1="201.5396" y1="682.1553" x2="201.5396" y2="659.3906" gradientTransform="matrix(1 0 0 -1 -0.0449 840.4785)">
				<stop  offset="0" style="stop-color:#808080"/>
				<stop  offset="1" style="stop-color:#F5F5F5"/>
			</linearGradient>
			<path fill="url(#SVGID_4_)" d="M201.495,181.088c-6.275,0-11.384-5.105-11.384-11.382s5.109-11.383,11.384-11.383
				c6.276,0,11.384,5.104,11.384,11.383C212.878,175.983,207.771,181.088,201.495,181.088L201.495,181.088z"/>
			
				<linearGradient id="SVGID_5_" gradientUnits="userSpaceOnUse" x1="201.5396" y1="662.4932" x2="201.5396" y2="679.0488" gradientTransform="matrix(1 0 0 -1 -0.0449 840.4785)">
				<stop  offset="0" style="stop-color:#808080"/>
				<stop  offset="1" style="stop-color:#F5F5F5"/>
			</linearGradient>
			<circle fill="url(#SVGID_5_)" cx="201.495" cy="169.707" r="8.278"/>
		</g>
		<g>
			<path fill="#959595" d="M201.495,161.428c-0.251,0-0.498,0.014-0.745,0.038v16.482c0.247,0.021,0.494,0.036,0.745,0.036
				c0.164,0,0.323-0.016,0.483-0.024v-16.506C201.817,161.442,201.658,161.428,201.495,161.428z"/>
		</g>
		<g>
			<path fill="#959595" d="M209.772,169.707c0-0.221-0.016-0.435-0.032-0.649h-16.492c-0.016,0.214-0.032,0.428-0.032,0.649
				c0,0.196,0.016,0.387,0.03,0.577h16.496C209.757,170.093,209.772,169.903,209.772,169.707z"/>
		</g>
	</g>
	<g>
		<g>
			
				<linearGradient id="SVGID_6_" gradientUnits="userSpaceOnUse" x1="592.5088" y1="680.6777" x2="592.5088" y2="657.9102" gradientTransform="matrix(1 0 0 -1 -0.0449 840.4785)">
				<stop  offset="0" style="stop-color:#808080"/>
				<stop  offset="1" style="stop-color:#F5F5F5"/>
			</linearGradient>
			<path fill="url(#SVGID_6_)" d="M592.463,182.569c-6.275,0-11.381-5.107-11.381-11.385c0-6.274,5.105-11.383,11.381-11.383
				c6.279,0,11.383,5.109,11.383,11.383C603.846,177.461,598.742,182.569,592.463,182.569L592.463,182.569z"/>
			
				<linearGradient id="SVGID_7_" gradientUnits="userSpaceOnUse" x1="592.5088" y1="661.0166" x2="592.5088" y2="677.5723" gradientTransform="matrix(1 0 0 -1 -0.0449 840.4785)">
				<stop  offset="0" style="stop-color:#808080"/>
				<stop  offset="1" style="stop-color:#F5F5F5"/>
			</linearGradient>
			<circle fill="url(#SVGID_7_)" cx="592.464" cy="171.184" r="8.278"/>
		</g>
		<g>
			<path fill="#959595" d="M592.463,162.909c-0.252,0-0.498,0.015-0.744,0.035v16.482c0.246,0.02,0.492,0.036,0.744,0.036
				c0.164,0,0.322-0.016,0.486-0.024v-16.506C592.785,162.924,592.627,162.909,592.463,162.909z"/>
		</g>
		<g>
			<path fill="#959595" d="M600.742,171.184c0-0.22-0.019-0.434-0.033-0.648h-16.49c-0.02,0.214-0.033,0.428-0.033,0.648
				c0,0.196,0.015,0.387,0.031,0.58h16.494C600.725,171.571,600.742,171.38,600.742,171.184z"/>
		</g>
	</g>
	<g>
		<g>
			
				<linearGradient id="SVGID_8_" gradientUnits="userSpaceOnUse" x1="593.249" y1="241.6709" x2="593.249" y2="218.9023" gradientTransform="matrix(1 0 0 -1 -0.0449 840.4785)">
				<stop  offset="0" style="stop-color:#808080"/>
				<stop  offset="1" style="stop-color:#F5F5F5"/>
			</linearGradient>
			<path fill="url(#SVGID_8_)" d="M593.205,621.576c-6.279,0-11.385-5.107-11.385-11.383c0-6.276,5.104-11.386,11.385-11.386
				c6.273,0,11.383,5.109,11.383,11.386C604.588,616.469,599.479,621.576,593.205,621.576L593.205,621.576z"/>
			
				<linearGradient id="SVGID_9_" gradientUnits="userSpaceOnUse" x1="593.249" y1="222.0078" x2="593.249" y2="238.5635" gradientTransform="matrix(1 0 0 -1 -0.0449 840.4785)">
				<stop  offset="0" style="stop-color:#808080"/>
				<stop  offset="1" style="stop-color:#F5F5F5"/>
			</linearGradient>
			<circle fill="url(#SVGID_9_)" cx="593.204" cy="610.193" r="8.278"/>
		</g>
		<g>
			<path fill="#959595" d="M593.205,601.918c-0.254,0-0.5,0.014-0.748,0.035v16.479c0.248,0.021,0.494,0.039,0.748,0.039
				c0.162,0,0.32-0.018,0.482-0.024v-16.506C593.525,601.932,593.367,601.918,593.205,601.918z"/>
		</g>
		<g>
			<path fill="#959595" d="M601.482,610.193c0-0.224-0.021-0.438-0.033-0.648h-16.49c-0.02,0.211-0.033,0.426-0.033,0.648
				c0,0.194,0.014,0.385,0.031,0.575h16.494C601.463,610.578,601.482,610.389,601.482,610.193z"/>
		</g>
	</g>
	<g>
		<g>
			
				<linearGradient id="SVGID_10_" gradientUnits="userSpaceOnUse" x1="201.5405" y1="241.6709" x2="201.5405" y2="218.9023" gradientTransform="matrix(1 0 0 -1 -0.0449 840.4785)">
				<stop  offset="0" style="stop-color:#808080"/>
				<stop  offset="1" style="stop-color:#F5F5F5"/>
			</linearGradient>
			<path fill="url(#SVGID_10_)" d="M201.498,621.576c-6.277,0-11.385-5.107-11.385-11.383c0-6.276,5.108-11.386,11.385-11.386
				c6.274,0,11.381,5.109,11.381,11.386C212.879,616.469,207.772,621.576,201.498,621.576L201.498,621.576z"/>
			
				<linearGradient id="SVGID_11_" gradientUnits="userSpaceOnUse" x1="201.5405" y1="222.0078" x2="201.5405" y2="238.5635" gradientTransform="matrix(1 0 0 -1 -0.0449 840.4785)">
				<stop  offset="0" style="stop-color:#808080"/>
				<stop  offset="1" style="stop-color:#F5F5F5"/>
			</linearGradient>
			<circle fill="url(#SVGID_11_)" cx="201.496" cy="610.193" r="8.278"/>
		</g>
		<g>
			<path fill="#959595" d="M201.497,601.918c-0.251,0-0.5,0.014-0.744,0.035v16.479c0.245,0.021,0.493,0.039,0.744,0.039
				c0.163,0,0.322-0.018,0.483-0.024v-16.506C201.819,601.932,201.66,601.918,201.497,601.918z"/>
		</g>
		<g>
			<path fill="#959595" d="M209.774,610.193c0-0.224-0.016-0.438-0.034-0.648h-16.49c-0.018,0.211-0.032,0.426-0.032,0.648
				c0,0.194,0.015,0.385,0.03,0.575h16.497C209.758,610.578,209.774,610.389,209.774,610.193z"/>
		</g>
	</g>
</g>
</svg>
