<?xml version="1.0" encoding="utf-8"?>
<svg version="1.1" xmlns:xlink="http://www.w3.org/1999/xlink" width="314px" height="50px" xmlns="http://www.w3.org/2000/svg">
  <defs>
    <mask fill="white" id="clip1375">
      <path d="M 288.935325820676 49.1758941695248  L 313.523272905438 24.5879470847624  L 288.935325820676 0  L 25.0646741793239 0  L 0.476727094561497 24.5879470847624  L 25.0646741793239 49.1758941695248  L 288.935325820676 49.1758941695248  Z " fill-rule="evenodd" />
    </mask>
  </defs>
  <g transform="matrix(1 0 0 1 -804 -120 )">
    <path d="M 288.935325820676 49.1758941695248  L 313.523272905438 24.5879470847624  L 288.935325820676 0  L 25.0646741793239 0  L 0.476727094561497 24.5879470847624  L 25.0646741793239 49.1758941695248  L 288.935325820676 49.1758941695248  Z " fill-rule="nonzero" fill="#00286a" stroke="none" transform="matrix(1 0 0 1 804 120 )" />
    <path d="M 288.935325820676 49.1758941695248  L 313.523272905438 24.5879470847624  L 288.935325820676 0  L 25.0646741793239 0  L 0.476727094561497 24.5879470847624  L 25.0646741793239 49.1758941695248  L 288.935325820676 49.1758941695248  Z " stroke-width="4" stroke="#0066ff" fill="none" transform="matrix(1 0 0 1 804 120 )" mask="url(#clip1375)" />
  </g>
</svg>