<?xml version="1.0" encoding="utf-8"?>
<svg version="1.1" xmlns:xlink="http://www.w3.org/1999/xlink" width="556px" height="405px" xmlns="http://www.w3.org/2000/svg">
  <defs>
    <mask fill="white" id="clip1386">
      <path d="M 517.577658010779 0.988241058304752  L 419.425771680549 1.18814306712396  L 394.937775600196 26  L 141.162175404214 26  L 116.674179323861 1.18814306712396  L 18.422341989221 0.988241058304752  L 0.231259186673204 20.3787359137678  L 0.231259186673204 154.213130818226  L 9 163.3086722195  L 9 255.363547280745  L 0.231259186673204 263.359627633513  L 0.231259186673204 369.607545320921  L 15.6237138657521 385  L 520.376286134248 385  L 535.768740813327 369.607545320921  L 535.768740813327 263.359627633513  L 527 255.363547280745  L 527 163.3086722195  L 535.768740813327 154.213130818226  L 535.768740813327 20.3787359137678  L 517.577658010779 0.988241058304752  Z " fill-rule="evenodd" />
    </mask>
    <filter x="1344px" y="133px" width="556px" height="405px" filterUnits="userSpaceOnUse" id="filter1387">
      <feOffset dx="0" dy="0" in="SourceAlpha" result="shadowOffsetInner" />
      <feGaussianBlur stdDeviation="5" in="shadowOffsetInner" result="shadowGaussian" />
      <feComposite in2="shadowGaussian" operator="atop" in="SourceAlpha" result="shadowComposite" />
      <feColorMatrix type="matrix" values="0 0 0 0 0  0 0 0 0 0.2  0 0 0 0 1  0 0 0 1 0  " in="shadowComposite" />
    </filter>
    <g id="widget1388">
      <path d="M 517.577658010779 0.988241058304752  L 419.425771680549 1.18814306712396  L 394.937775600196 26  L 141.162175404214 26  L 116.674179323861 1.18814306712396  L 18.422341989221 0.988241058304752  L 0.231259186673204 20.3787359137678  L 0.231259186673204 154.213130818226  L 9 163.3086722195  L 9 255.363547280745  L 0.231259186673204 263.359627633513  L 0.231259186673204 369.607545320921  L 15.6237138657521 385  L 520.376286134248 385  L 535.768740813327 369.607545320921  L 535.768740813327 263.359627633513  L 527 255.363547280745  L 527 163.3086722195  L 535.768740813327 154.213130818226  L 535.768740813327 20.3787359137678  L 517.577658010779 0.988241058304752  Z " fill-rule="nonzero" fill="#00286a" stroke="none" fill-opacity="0.0980392156862745" transform="matrix(1 0 0 1 1354 143 )" />
      <path d="M 517.577658010779 0.988241058304752  L 419.425771680549 1.18814306712396  L 394.937775600196 26  L 141.162175404214 26  L 116.674179323861 1.18814306712396  L 18.422341989221 0.988241058304752  L 0.231259186673204 20.3787359137678  L 0.231259186673204 154.213130818226  L 9 163.3086722195  L 9 255.363547280745  L 0.231259186673204 263.359627633513  L 0.231259186673204 369.607545320921  L 15.6237138657521 385  L 520.376286134248 385  L 535.768740813327 369.607545320921  L 535.768740813327 263.359627633513  L 527 255.363547280745  L 527 163.3086722195  L 535.768740813327 154.213130818226  L 535.768740813327 20.3787359137678  L 517.577658010779 0.988241058304752  Z " stroke-width="4" stroke="#0066ff" fill="none" transform="matrix(1 0 0 1 1354 143 )" mask="url(#clip1386)" />
    </g>
  </defs>
  <g transform="matrix(1 0 0 1 -1344 -133 )">
    <use xlink:href="#widget1388" filter="url(#filter1387)" />
    <use xlink:href="#widget1388" />
  </g>
</svg>