<?xml version="1.0" encoding="utf-8"?>
<svg version="1.1" xmlns:xlink="http://www.w3.org/1999/xlink" width="28px" height="19px" xmlns="http://www.w3.org/2000/svg">
  <defs>
    <linearGradient gradientUnits="userSpaceOnUse" x1="0" y1="0" x2="0" y2="19" id="LinearGradient140">
      <stop id="Stop141" stop-color="#02e6f3" offset="0" />
      <stop id="Stop142" stop-color="#44d7b6" offset="1" />
    </linearGradient>
  </defs>
  <g transform="matrix(1 0 0 1 -8 -10 )">
    <path d="M 25.6666669901912 16.7200001422584  C 26.9553307306243 16.7200001422584  28 17.740790635855  28 19  C 28 19  0 19  0 19  L 0 16.7200001422584  C 0 16.7200001422584  25.6666669901912 16.7200001422584  25.6666669901912 16.7200001422584  Z M 19.4444449836521 11.4  C 20.7331087240852 11.4  21.7777779934608 12.4207906121453  21.7777779934608 13.6800000948389  C 21.7777779934608 13.6800000948389  0 13.6800000948389  0 13.6800000948389  L 0 11.4  C 0 11.4  19.4444449836521 11.4  19.4444449836521 11.4  Z M 0 5.32000037935566  L 0 7.6  C 0 7.6  16.3333330098088 7.6  16.3333330098088 7.6  C 16.3333330098088 6.34079051730636  15.2886637404331 5.32000037935566  13.9999990294263 5.32000037935566  C 13.9999990294263 5.32000037935566  0 5.32000037935566  0 5.32000037935566  Z M 7.7777770228871 0  C 9.06644173389392 0  10.1111110032696 1.02079108633985  10.1111110032696 2.27999962064434  C 10.1111110032696 2.27999962064434  0 2.27999962064434  0 2.27999962064434  L 0 0  C 0 0  7.7777770228871 0  7.7777770228871 0  Z " fill-rule="nonzero" fill="url(#LinearGradient140)" stroke="none" transform="matrix(1 0 0 1 8 10 )" />
  </g>
</svg>