<?xml version="1.0" encoding="utf-8"?>
<svg version="1.1" xmlns:xlink="http://www.w3.org/1999/xlink" width="28px" height="19px" xmlns="http://www.w3.org/2000/svg">
  <defs>
    <linearGradient gradientUnits="userSpaceOnUse" x1="0" y1="0" x2="0" y2="19" id="LinearGradient137">
      <stop id="Stop138" stop-color="#02e6f3" offset="0" />
      <stop id="Stop139" stop-color="#b2f9c1" offset="1" />
    </linearGradient>
  </defs>
  <g transform="matrix(1 0 0 1 -147 -10 )">
    <path d="M 25.6666669901912 2.27999985774163  C 26.9553307306243 2.27999985774163  28 1.259209364145  28 0  C 28 0  0 0  0 0  L 0 2.27999985774163  C 0 2.27999985774163  25.6666669901912 2.27999985774163  25.6666669901912 2.27999985774163  Z M 19.4444449836521 7.6  C 20.7331087240852 7.6  21.7777779934608 6.57920938785473  21.7777779934608 5.31999990516108  C 21.7777779934608 5.31999990516108  0 5.31999990516108  0 5.31999990516108  L 0 7.6  C 0 7.6  19.4444449836521 7.6  19.4444449836521 7.6  Z M 0 13.6799996206443  L 0 11.4  C 0 11.4  16.3333330098088 11.4  16.3333330098088 11.4  C 16.3333330098088 12.6592094826936  15.2886637404331 13.6799996206443  13.9999990294263 13.6799996206443  C 13.9999990294263 13.6799996206443  0 13.6799996206443  0 13.6799996206443  Z M 7.7777770228871 19  C 9.06644173389392 19  10.1111110032696 17.9792089136601  10.1111110032696 16.7200003793557  C 10.1111110032696 16.7200003793557  0 16.7200003793557  0 16.7200003793557  L 0 19  C 0 19  7.7777770228871 19  7.7777770228871 19  Z " fill-rule="nonzero" fill="url(#LinearGradient137)" stroke="none" transform="matrix(1 0 0 1 147 10 )" />
  </g>
</svg>