<?xml version="1.0" standalone="no"?><!DOCTYPE svg PUBLIC "-//W3C//DTD SVG 1.1//EN" "http://www.w3.org/Graphics/SVG/1.1/DTD/svg11.dtd"><svg t="1708410486695" class="icon" viewBox="0 0 1024 1024" version="1.1" xmlns="http://www.w3.org/2000/svg" p-id="22469" xmlns:xlink="http://www.w3.org/1999/xlink" width="200" height="200"><path d="M60.393244 0h903.213512C984.382578 0 1001.244444 16.384 1001.244444 36.568178v950.863644C1001.244444 1007.616 984.405333 1024 963.606756 1024H60.393244C39.594667 1024 22.755556 1007.616 22.755556 987.431822V36.568178C22.755556 16.384 39.594667 0 60.393244 0z m872.971378 68.630756l-841.955555-0.182045v182.044445h841.955555V68.630756zM384.182044 665.850311c0 55.7056-22.300444 83.5584-66.855822 83.5584-47.058489 1.251556-69.950578-30.947556-68.744533-96.529067 0-66.901333 22.9376-99.692089 68.744533-98.463288 43.349333 1.251556 65.627022 26.0096 66.855822 74.274133v37.159822z m0-260.027733v131.8912c-16.088178-22.300444-40.231822-34.679467-72.408177-37.114311-82.966756 0-124.450133 50.744889-124.450134 152.280177 0 95.300267 38.980267 143.610311 117.031823 144.816356 38.365867-1.206044 64.989867-13.607822 79.826488-37.114311v31.561955h61.303467V405.868089h-61.303467v-0.045511z m319.715556 215.4496c53.248 1.251556 81.078044 20.434489 83.5584 57.594311 0 39.594667-25.941333 59.437511-78.006044 59.437511h-107.702045v-117.031822h102.172445z m-102.149689-157.832534h96.551822c45.829689 1.2288 69.950578 17.339733 72.453689 48.264534-1.251556 34.679467-25.964089 52.6336-74.274133 53.8624h-94.731378v-102.126934z m113.322667 328.704c91.591111 0 137.4208-36.545422 137.4208-109.568-1.251556-44.600889-22.9376-76.140089-65.035378-94.731377 30.993067-16.088178 47.081244-42.712178 48.287289-79.826489-4.937956-63.169422-48.287289-96.597333-129.979733-100.306489H540.444444V792.120889h174.580623z" fill="#8a8a8a" p-id="22470"></path></svg>