<?xml version="1.0" standalone="no"?><!DOCTYPE svg PUBLIC "-//W3C//DTD SVG 1.1//EN" "http://www.w3.org/Graphics/SVG/1.1/DTD/svg11.dtd"><svg t="1708410386203" class="icon" viewBox="0 0 1108 1024" version="1.1" xmlns="http://www.w3.org/2000/svg" p-id="19630" xmlns:xlink="http://www.w3.org/1999/xlink" width="216.40625" height="200"><path d="M843.617 1018.883c-5.662 3.481-11.953 5.117-18.16 5.117-11.617 0-22.94-5.83-29.525-16.357-10.024-16.146-4.991-37.368 11.365-47.391 60.561-37.075 110.721-85.6 148.719-141.799L921.583 798.7c-16.608-9.52-22.27-30.574-12.666-47.056 9.52-16.44 30.784-22.103 47.308-12.624l34.097 19.544c25.877-53.683 41.856-112.273 46.218-173.463H998.5c-19.166 0-34.642-15.392-34.642-34.433s15.518-34.432 34.643-34.432h37.662c-4.446-62.994-21.432-122.506-47.98-176.524l-31.958 18.327c-5.452 3.104-11.365 4.614-17.279 4.614-11.995 0-23.612-6.165-30.029-17.196-9.562-16.482-3.9-37.536 12.708-47.056l31.832-18.286c-34.348-50.16-78.05-93.4-128.46-127.58l-18.37 31.58c-6.417 11.072-18.077 17.196-30.03 17.196a34.457 34.457 0 0 1-17.279-4.614c-16.608-9.52-22.27-30.574-12.707-47.014l18.453-31.79C710.752 91.47 650.82 74.737 587.45 70.375v42.694c0 19.041-15.476 34.433-34.643 34.433s-34.642-15.392-34.642-34.433V70.543c-61.945 4.487-120.577 20.844-173.924 46.385l19.083 32.88c9.604 16.483 3.9 37.537-12.666 47.015-5.452 3.104-11.408 4.613-17.28 4.613-11.994 0-23.611-6.165-30.07-17.195l-19.125-32.964c-50.872 34.055-94.364 77.84-129.09 128.041l33.342 19.125c16.566 9.52 22.27 30.574 12.666 47.056-6.417 11.03-18.076 17.196-30.029 17.196a34.457 34.457 0 0 1-17.28-4.614l-33.802-19.334C93.148 392.765 75.66 452.11 71.046 515.229h38.04c19.166 0 34.641 15.392 34.641 34.433s-15.475 34.432-34.642 34.432H70.543c4.32 61.987 20.592 121.416 46.972 175.77l36.236-20.802c16.524-9.52 37.704-3.9 47.308 12.623 9.562 16.483 3.9 37.536-12.666 47.057l-36.445 20.928c37.2 54.69 86.018 102.039 144.566 138.569 16.188 10.065 21.095 31.328 10.904 47.433-10.191 16.105-31.539 21.054-47.727 10.863C97.09 915.125 0 740.78 0 550.165 0 246.815 248.325 0 553.604 0c305.28 0 553.604 246.815 553.604 550.165 0 192.461-98.516 367.686-263.59 468.718zM552.514 482.055c12.372 0 23.822 3.481 33.845 9.143l188.184-107.995c16.566-9.52 37.745-3.858 47.308 12.582s3.9 37.536-12.666 47.014L621.588 550.46v0.21c0 37.913-30.91 68.697-69.116 68.697s-69.117-30.742-69.117-68.698c0.042-37.83 30.994-68.613 69.159-68.613z" p-id="19631"></path></svg>