<?xml version="1.0" standalone="no"?><!DOCTYPE svg PUBLIC "-//W3C//DTD SVG 1.1//EN" "http://www.w3.org/Graphics/SVG/1.1/DTD/svg11.dtd"><svg t="1708409960436" class="icon" viewBox="0 0 1024 1024" version="1.1" xmlns="http://www.w3.org/2000/svg" p-id="7456" xmlns:xlink="http://www.w3.org/1999/xlink" width="200" height="200"><path d="M509.824 207.829333a19.285333 19.285333 0 0 1 19.114667 19.114667v87.765333a19.2 19.2 0 0 1-38.4 0V226.944a19.285333 19.285333 0 0 1 19.114666-19.114667zM372.522667 256.512l43.434666 78.208a19.541333 19.541333 0 0 1-6.954666 26.496 18.602667 18.602667 0 0 1-25.6-6.954667L339.925333 276.053333a19.626667 19.626667 0 0 1 6.954667-26.496 18.730667 18.730667 0 0 1 25.6 6.954667zM328.192 415.530667a19.370667 19.370667 0 0 1 6.528 26.069333 18.218667 18.218667 0 0 1-25.216 6.954667L235.52 404.224a19.925333 19.925333 0 0 1-6.954667-26.069333 18.218667 18.218667 0 0 1 25.216-6.954667l74.410667 44.330667z m348.928-165.973334a19.626667 19.626667 0 0 1 6.954667 26.496l-43.477334 78.208a18.346667 18.346667 0 0 1-25.6 6.954667 20.138667 20.138667 0 0 1-6.954666-26.496l43.434666-78.208a18.730667 18.730667 0 0 1 25.6-6.954667z m11.733333 192a19.114667 19.114667 0 0 1 6.954667-26.069333l73.856-44.330667a18.218667 18.218667 0 0 1 25.216 6.954667 19.114667 19.114667 0 0 1-6.954667 26.069333l-73.856 44.373334a18.218667 18.218667 0 0 1-25.216-6.954667z m80.810667-342.357333A173.098667 173.098667 0 0 1 937.813333 276.053333v471.68a173.098667 173.098667 0 0 1-168.149333 176.853334H254.336a173.098667 173.098667 0 0 1-168.149333-176.853334V276.053333a173.098667 173.098667 0 0 1 168.149333-176.853333h515.328z m59.733333 73.856a37.546667 37.546667 0 0 0-36.053333 39.125333 36.181333 36.181333 0 1 0 72.149333 0 37.546667 37.546667 0 0 0-36.053333-39.125333z m-630.016 0a37.546667 37.546667 0 0 0-36.053333 39.125333 37.546667 37.546667 0 0 0 36.053333 39.125334 37.546667 37.546667 0 0 0 36.053334-39.125334 37.546667 37.546667 0 0 0-36.053334-39.125333z m0 660.437333a39.253333 39.253333 0 0 0 0-78.208 39.253333 39.253333 0 0 0 0 78.208z m630.016 0a39.253333 39.253333 0 1 0-36.053333-39.125333 37.546667 37.546667 0 0 0 35.84 39.168z m35.626667-278.101333c0.426667-6.528 0.426667-13.056 0.426667-19.541333A362.666667 362.666667 0 0 0 512 164.394667a362.666667 362.666667 0 0 0-353.28 371.498666c0 6.528 0 13.056 0.426667 19.541334h277.333333c0-1.322667-0.426667-3.029333-0.426667-4.266667A78.122667 78.122667 0 0 1 512 471.125333a21.333333 21.333333 0 0 1 5.205333 0.426667 48.426667 48.426667 0 0 0 21.333334-6.954667 714.24 714.24 0 0 1 126.421333-96.042666s9.984-0.853333-0.426667 16.512-80.384 107.776-81.706666 116.906666c-0.853333 6.101333-1.322667 13.056-1.749334 16.512a81.066667 81.066667 0 0 1 6.528 32.597334 14.762667 14.762667 0 0 1-0.426666 4.266666h277.632z m-376.917333 59.136l-106.666667 234.666667h60.16l26.069333-54.741334h87.338667l26.069333 54.741334h61.269334l-106.666667-234.666667H488.106667z m-6.528 139.050667l28.672-78.378667h0.853333l28.672 78.208h-58.197333z" p-id="7457" fill="#707070"></path></svg>