<?xml version="1.0" standalone="no"?><!DOCTYPE svg PUBLIC "-//W3C//DTD SVG 1.1//EN" "http://www.w3.org/Graphics/SVG/1.1/DTD/svg11.dtd"><svg t="1708409820351" class="icon" viewBox="0 0 1024 1024" version="1.1" xmlns="http://www.w3.org/2000/svg" p-id="4277" xmlns:xlink="http://www.w3.org/1999/xlink" width="200" height="200"><path d="M227.015593 1024A230.31322 230.31322 0 0 1 0 796.984407V227.015593A230.31322 230.31322 0 0 1 227.015593 0h569.968814A230.31322 230.31322 0 0 1 1024 227.015593v569.968814A230.31322 230.31322 0 0 1 796.984407 1024z m233.350509-80.271186H557.125424l108.214237-281.079322H577.778983l-66.733559 217.990508-68.035255-217.990508H355.79661c-1.648814 0 104.91661 281.079322 104.91661 281.079322z m235.172881-586.45695C683.042712 379.140339 598.779661 491.086102 597.217627 502.280678a32.282034 32.282034 0 0 0-1.995932 20.39322 104.135593 104.135593 0 0 1 7.983729 40.439322v5.553899h333.147118c0-8.157288 0.607458-16.314576 0.607458-24.645424C937.220339 289.496949 746.305085 83.134915 512 83.134915S86.779661 289.496949 86.779661 544.021695c0 8.157288 0 16.314576 0.607458 24.471864h333.233898v-5.553898c0-54.671186 40.786441-99.015593 91.292203-99.015593h6.248136a27.075254 27.075254 0 0 0 26.033898-8.677966c8.677966-7.029153 101.532203-98.408136 152.124746-119.061695 1.822373 0 10.32678 0.954576-0.867797 20.566779z m27.682712 67.167458a25.339661 25.339661 0 0 1 7.983729-32.715932l87.647457-55.452204a21.000678 21.000678 0 0 1 29.938983 8.677967 25.426441 25.426441 0 0 1-8.070508 32.715932l-87.560678 55.538983a20.306441 20.306441 0 0 1-10.847458 3.210847 21.868475 21.868475 0 0 1-19.091525-11.975593zM269.016949 433.204068l-87.647457-55.452204a25.339661 25.339661 0 0 1-7.81017-32.715932 20.913898 20.913898 0 0 1 29.852203-8.677966l87.734238 55.452203a25.339661 25.339661 0 0 1 7.896949 32.715933 21.955254 21.955254 0 0 1-19.091526 11.975593 19.785763 19.785763 0 0 1-10.934237-3.297627z m90.250848-115.764068l-50.592543-96.065085a25.339661 25.339661 0 0 1 8.070509-32.715932 20.827119 20.827119 0 0 1 29.852203 8.677966l50.592542 96.065085a25.339661 25.339661 0 0 1-8.070508 32.715932 20.046102 20.046102 0 0 1-10.847458 3.210848 21.521356 21.521356 0 0 1-19.004745-11.975594z m273.963389 8.677966a25.252881 25.252881 0 0 1-8.417627-32.629152l50.505763-96.065085a21.000678 21.000678 0 0 1 29.938983-8.677966 25.426441 25.426441 0 0 1 7.983729 32.715932l-50.158644 95.978305a21.694915 21.694915 0 0 1-19.091526 12.322712 19.785763 19.785763 0 0 1-10.500339-3.557966z m-143.18644-59.530847V156.20339a21.955254 21.955254 0 1 1 43.38983 0v110.470508a21.955254 21.955254 0 1 1-43.38983 0z" p-id="4278"></path></svg>