<svg width="65.086914" height="65.086914" viewBox="0 0 65.0869 65.0869" fill="none" xmlns="http://www.w3.org/2000/svg" xmlns:xlink="http://www.w3.org/1999/xlink">
	<desc>
			Created with Pixso.
	</desc>
	<defs/>
	<mask id="mask1_96" mask-type="alpha" maskUnits="userSpaceOnUse" x="1.043457" y="1.043457" width="63.000000" height="63.000000">
		<path id="path" d="M32.5435 1.04346C49.9404 1.04346 64.0435 15.1465 64.0435 32.5435C64.0435 49.9404 49.9404 64.0435 32.5435 64.0435C15.1465 64.0435 1.04346 49.9404 1.04346 32.5435C1.04346 15.1465 15.1465 1.04346 32.5435 1.04346Z" fill-rule="evenodd" fill="#FFFFFF"/>
		<path id="path" d="M64.0435 32.5435C64.0435 49.9404 49.9404 64.0435 32.5435 64.0435C15.1465 64.0435 1.04346 49.9404 1.04346 32.5435C1.04346 15.1465 15.1465 1.04346 32.5435 1.04346C49.9404 1.04346 64.0435 15.1465 64.0435 32.5435Z" stroke="#4987D4" stroke-width="2.086984" stroke-dasharray="1.04349 1.04349"/>
	</mask>
	<g mask="url(#mask1_96)">
		<path id="path" d="M64.0435 32.5435C64.0435 49.9404 49.9404 64.0435 32.5435 64.0435C15.1465 64.0435 1.04346 49.9404 1.04346 32.5435C1.04346 15.1465 15.1465 1.04346 32.5435 1.04346C49.9404 1.04346 64.0435 15.1465 64.0435 32.5435Z" stroke="#4987D4" stroke-width="2.086984" stroke-dasharray="1.04349 1.04349"/>
	</g>
</svg>
