<svg width="132.760956" height="49.760986" viewBox="0 0 132.761 49.761" fill="none" xmlns="http://www.w3.org/2000/svg" xmlns:xlink="http://www.w3.org/1999/xlink">
	<desc>
			Created with Pixso.
	</desc>
	<defs>
		<linearGradient id="paint_linear_2_3_0" x1="-69.434135" y1="-20.255981" x2="-47.704163" y2="-20.255981" gradientUnits="userSpaceOnUse">
			<stop stop-color="#0DD5E4"/>
			<stop offset="1.000000" stop-color="#044E73"/>
		</linearGradient>
		<linearGradient id="paint_linear_1_103_0" x1="-439.723175" y1="-592.893555" x2="-306.239075" y2="-592.893555" gradientUnits="userSpaceOnUse">
			<stop stop-color="#0DD5E4"/>
			<stop offset="1.000000" stop-color="#044E73"/>
		</linearGradient>
		<linearGradient id="paint_linear_1_106_0" x1="-439.723175" y1="-592.893555" x2="-306.239075" y2="-592.893555" gradientUnits="userSpaceOnUse">
			<stop stop-color="#0DD5E4"/>
			<stop offset="1.000000" stop-color="#044E73"/>
		</linearGradient>
	</defs>
	<path id="矢量 1" d="M2.76096 25.3805L3.04282 25.3805C3.23077 25.3805 3.3952 25.3805 3.53613 25.3805C3.67706 25.3805 3.84149 25.3805 4.02942 25.3805C4.21732 25.3805 4.42874 25.3805 4.66364 25.3805C4.89853 25.3805 5.34485 25.3805 6.00256 25.3805C6.66028 25.3805 7.1301 25.3805 7.41196 25.3805C7.69385 25.3805 7.92874 25.3805 8.11667 25.3805C8.30457 25.3805 8.70389 25.3805 9.31464 25.3805C9.92538 25.3805 10.3482 25.3805 10.5831 25.3805C10.818 25.3805 11.1469 25.3805 11.5697 25.3805C11.9925 25.3805 12.4153 25.3805 12.8381 25.3805C13.261 25.3805 13.5898 25.3805 13.8247 25.3805C14.0596 25.3805 14.4824 25.3805 15.0932 25.3805C15.7039 25.3805 16.3146 25.3805 16.9254 25.3805C17.5361 25.3805 18.0999 25.3805 18.6166 25.3805C19.1334 25.3805 19.6267 25.3805 20.0965 25.3805C20.5663 25.3805 20.9656 25.3805 21.2945 25.3805C21.6234 25.3805 21.9287 25.3805 22.2106 25.3805C22.4925 25.3805 22.7509 25.3805 22.9858 25.3805C23.2207 25.3805 23.3851 25.3805 23.4791 25.3805C23.573 25.3805 23.667 25.3805 23.761 25.3805" stroke="url(#paint_linear_2_3_0)" stroke-width="0.760941"/>
	<path id="path" d="M132.761 49.3805L17.8945 49.3805L3.76096 36.3805" stroke="url(#paint_linear_1_103_0)" stroke-width="0.760941"/>
	<path id="path" d="M132.761 0.380493L17.8945 0.380493L3.76096 13.3805" stroke="url(#paint_linear_1_106_0)" stroke-width="0.760941"/>
	<path id="path" d="M3.26096 11.3805C4.64166 11.3805 5.76096 12.4998 5.76096 13.8805C5.76096 15.2612 4.64166 16.3805 3.26096 16.3805C1.88025 16.3805 0.760956 15.2612 0.760956 13.8805C0.760956 12.4998 1.88025 11.3805 3.26096 11.3805Z" fill-rule="nonzero" fill="#064459"/>
	<mask id="mask1_115" mask-type="alpha" maskUnits="userSpaceOnUse" x="0.760956" y="11.380493" width="5.000000" height="5.000000">
		<path id="path" d="M3.26096 11.3805C4.64166 11.3805 5.76096 12.4998 5.76096 13.8805C5.76096 15.2612 4.64166 16.3805 3.26096 16.3805C1.88025 16.3805 0.760956 15.2612 0.760956 13.8805C0.760956 12.4998 1.88025 11.3805 3.26096 11.3805Z" fill-rule="evenodd" fill="#FFFFFF"/>
		<path id="path" d="M5.76096 13.8805C5.76096 15.2612 4.64166 16.3805 3.26096 16.3805C1.88025 16.3805 0.760956 15.2612 0.760956 13.8805C0.760956 12.4998 1.88025 11.3805 3.26096 11.3805C4.64166 11.3805 5.76096 12.4998 5.76096 13.8805Z" stroke="#0BC0DC" stroke-width="1.521882"/>
	</mask>
	<g mask="url(#mask1_115)">
		<path id="path" d="M5.76096 13.8805C5.76096 15.2612 4.64166 16.3805 3.26096 16.3805C1.88025 16.3805 0.760956 15.2612 0.760956 13.8805C0.760956 12.4998 1.88025 11.3805 3.26096 11.3805C4.64166 11.3805 5.76096 12.4998 5.76096 13.8805Z" stroke="#0BC0DC" stroke-width="1.521882"/>
	</g>
	<path id="path" d="M3.26096 33.3805C4.64166 33.3805 5.76096 34.4998 5.76096 35.8805C5.76096 37.2612 4.64166 38.3805 3.26096 38.3805C1.88025 38.3805 0.760956 37.2612 0.760956 35.8805C0.760956 34.4998 1.88025 33.3805 3.26096 33.3805Z" fill-rule="nonzero" fill="#064459"/>
	<mask id="mask1_122" mask-type="alpha" maskUnits="userSpaceOnUse" x="0.760956" y="33.380493" width="5.000000" height="5.000000">
		<path id="path" d="M3.26096 33.3805C4.64166 33.3805 5.76096 34.4998 5.76096 35.8805C5.76096 37.2612 4.64166 38.3805 3.26096 38.3805C1.88025 38.3805 0.760956 37.2612 0.760956 35.8805C0.760956 34.4998 1.88025 33.3805 3.26096 33.3805Z" fill-rule="evenodd" fill="#FFFFFF"/>
		<path id="path" d="M5.76096 35.8805C5.76096 37.2612 4.64166 38.3805 3.26096 38.3805C1.88025 38.3805 0.760956 37.2612 0.760956 35.8805C0.760956 34.4998 1.88025 33.3805 3.26096 33.3805C4.64166 33.3805 5.76096 34.4998 5.76096 35.8805Z" stroke="#0BC0DC" stroke-width="1.521882"/>
	</mask>
	<g mask="url(#mask1_122)">
		<path id="path" d="M5.76096 35.8805C5.76096 37.2612 4.64166 38.3805 3.26096 38.3805C1.88025 38.3805 0.760956 37.2612 0.760956 35.8805C0.760956 34.4998 1.88025 33.3805 3.26096 33.3805C4.64166 33.3805 5.76096 34.4998 5.76096 35.8805Z" stroke="#0BC0DC" stroke-width="1.521882"/>
	</g>
	<path id="path" d="M3.26096 23.3805C4.64166 23.3805 5.76096 24.4998 5.76096 25.8805C5.76096 27.2612 4.64166 28.3805 3.26096 28.3805C1.88025 28.3805 0.760956 27.2612 0.760956 25.8805C0.760956 24.4998 1.88025 23.3805 3.26096 23.3805Z" fill-rule="nonzero" fill="#064459"/>
	<mask id="mask1_129" mask-type="alpha" maskUnits="userSpaceOnUse" x="0.760956" y="23.380493" width="5.000000" height="5.000000">
		<path id="path" d="M3.26096 23.3805C4.64166 23.3805 5.76096 24.4998 5.76096 25.8805C5.76096 27.2612 4.64166 28.3805 3.26096 28.3805C1.88025 28.3805 0.760956 27.2612 0.760956 25.8805C0.760956 24.4998 1.88025 23.3805 3.26096 23.3805Z" fill-rule="evenodd" fill="#FFFFFF"/>
		<path id="path" d="M5.76096 25.8805C5.76096 27.2612 4.64166 28.3805 3.26096 28.3805C1.88025 28.3805 0.760956 27.2612 0.760956 25.8805C0.760956 24.4998 1.88025 23.3805 3.26096 23.3805C4.64166 23.3805 5.76096 24.4998 5.76096 25.8805Z" stroke="#0BC0DC" stroke-width="1.521882"/>
	</mask>
	<g mask="url(#mask1_129)">
		<path id="path" d="M5.76096 25.8805C5.76096 27.2612 4.64166 28.3805 3.26096 28.3805C1.88025 28.3805 0.760956 27.2612 0.760956 25.8805C0.760956 24.4998 1.88025 23.3805 3.26096 23.3805C4.64166 23.3805 5.76096 24.4998 5.76096 25.8805Z" stroke="#0BC0DC" stroke-width="1.521882"/>
	</g>
</svg>
