<svg width="81.347900" height="81.347900" viewBox="0 0 81.3479 81.3479" fill="none" xmlns="http://www.w3.org/2000/svg" xmlns:xlink="http://www.w3.org/1999/xlink">
	<desc>
			Created with Pixso.
	</desc>
	<defs/>
	<mask id="mask1_59" mask-type="alpha" maskUnits="userSpaceOnUse" x="4.173950" y="4.173950" width="73.000000" height="73.000000">
		<path id="path" d="M40.674 4.17395C60.8323 4.17395 77.174 20.5156 77.174 40.674C77.174 60.8323 60.8323 77.174 40.674 77.174C20.5156 77.174 4.17395 60.8323 4.17395 40.674C4.17395 20.5156 20.5156 4.17395 40.674 4.17395Z" fill-rule="evenodd" fill="#FFFFFF"/>
		<path id="path" d="M77.174 40.674C77.174 60.8323 60.8323 77.174 40.674 77.174C20.5156 77.174 4.17395 60.8323 4.17395 40.674C4.17395 20.5156 20.5156 4.17395 40.674 4.17395C60.8323 4.17395 77.174 20.5156 77.174 40.674Z" stroke="#111523" stroke-width="8.347938" stroke-dasharray="4.17397 4.17397"/>
	</mask>
	<g mask="url(#mask1_59)">
		<path id="path" d="M77.174 40.674C77.174 60.8323 60.8323 77.174 40.674 77.174C20.5156 77.174 4.17395 60.8323 4.17395 40.674C4.17395 20.5156 20.5156 4.17395 40.674 4.17395C60.8323 4.17395 77.174 20.5156 77.174 40.674Z" stroke="#111523" stroke-width="8.347938" stroke-dasharray="4.17397 4.17397"/>
	</g>
</svg>
