<svg width="58.000000" height="58.000000" viewBox="0 0 58 58" fill="none" xmlns="http://www.w3.org/2000/svg" xmlns:xlink="http://www.w3.org/1999/xlink">
	<desc>
			Created with Pixso.
	</desc>
	<defs/>
	<path id="path" d="M31 10.2273C31 10.6515 30.56 11 30 11C29.44 11 29 10.6667 29 10.2424L29 0.757568C29 0.333313 29.44 0 30 0C30.56 0 31 0.333313 31 0.757568L31 10.2273Z" fill-rule="nonzero" fill="#000000"/>
	<path id="path" d="M29 0.78717L29 10.6428C29 11.0836 29.4314 11.43 29.9804 11.43C30.5294 11.43 30.9608 11.0679 30.9608 10.627L30.9608 0.78717C30.9608 0.346375 30.5294 0 29.9804 0C29.4314 0 29 0.346375 29 0.78717ZM29.0392 47.7665L29.0392 57.2128C29.0392 57.6536 29.4706 58 30.0196 58C30.5686 58 31 57.6379 31 57.2128L31 47.7665C31 47.3257 30.5686 46.9794 30.0196 46.9794C29.4706 46.9794 29.0392 47.3257 29.0392 47.7665Z" fill-rule="nonzero" fill="#000000"/>
	<path id="path" d="M58 30C58 30.56 57.6511 31 57.2414 31L47.7586 31C47.3338 31 47 30.56 47 30C47 29.44 47.3338 29 47.7586 29L57.2414 29C57.6662 29 58 29.44 58 30Z" fill-rule="nonzero" fill="#000000"/>
	<path id="path" d="M11 30C11 30.56 10.6543 31 10.2143 31L0.785706 31C0.345703 31 0 30.56 0 30C0 29.44 0.345703 29 0.785706 29L10.2143 29C10.6543 29 11 29.44 11 30Z" fill-rule="nonzero" fill="#000000"/>
	<path id="path" d="M11 30C11 30.56 10.6543 31 10.2143 31L0.785706 31C0.345703 31 0 30.56 0 30C0 29.44 0.345703 29 0.785706 29L10.2143 29C10.6543 29 11 29.44 11 30Z" fill-rule="nonzero" fill="#000000"/>
	<path id="path" d="M36.4059 3.55737C45.7028 6.03601 52.9642 13.299 55.4423 22.5978C55.537 22.9451 55.8527 23.1819 56.2 23.1819C56.2632 23.1819 56.3263 23.1819 56.421 23.1504C56.8379 23.035 57.0843 22.6055 56.9734 22.1873C54.3553 12.3376 46.6639 4.64465 36.8163 2.02594C36.4059 1.91541 35.9639 2.16803 35.8534 2.5943C35.7933 2.79541 35.8185 3.01239 35.9229 3.19446C36.0273 3.37653 36.202 3.50775 36.4059 3.55737ZM2.11188 22.7875C2.21631 22.9695 2.39087 23.1007 2.59479 23.1504C2.6579 23.1819 2.72107 23.1819 2.78418 23.1819C3.14728 23.1819 3.46295 22.9451 3.55768 22.5978C6.03577 13.299 13.2972 6.03601 22.5941 3.55737C23.011 3.44202 23.2574 3.01251 23.1466 2.5943C23.0361 2.16803 22.6099 1.91541 22.1837 2.02594C12.3656 4.63098 4.63104 12.3671 2.0423 22.1873C1.9823 22.3884 2.00739 22.6054 2.11188 22.7875ZM2.02655 36.8071C4.65472 46.6509 12.3419 54.3397 22.1837 56.9684C22.2469 57 22.3258 57 22.3889 57C22.7362 57 23.0519 56.7632 23.1309 56.4158C23.2571 55.9896 23.0046 55.5633 22.5784 55.4528C13.2969 52.9898 6.00427 45.6957 3.54187 36.4124C3.4314 35.9861 3.00519 35.7335 2.57898 35.844C2.16211 35.9594 1.91571 36.3889 2.02655 36.8071ZM36.7847 56.9684C36.7234 56.9879 36.6596 56.9985 36.5953 57C36.2054 56.9924 35.8795 56.7012 35.8282 56.3146C35.7769 55.9279 36.0156 55.5617 36.3901 55.4528C45.6716 52.9898 52.9641 45.6957 55.4266 36.4124C55.537 35.9861 55.979 35.7335 56.3894 35.844C56.8156 35.9545 57.0682 36.3808 56.9419 36.8071C54.3187 46.6538 46.6295 54.3447 36.7847 56.9684Z" fill-rule="nonzero" fill="#000000"/>
	<path id="path" d="M23.1946 51C23.1136 51 23.0165 50.9846 22.9355 50.9537C13.4131 47.8682 7 39.3521 7 29.7714C7 29.3394 7.35626 29 7.80975 29C8.26318 29 8.61945 29.3394 8.61945 29.7714C8.61945 38.704 14.5791 46.6339 23.4537 49.5035C23.8748 49.6423 24.1016 50.0743 23.9558 50.4755C23.8424 50.7994 23.5347 51 23.1946 51Z" fill-rule="nonzero" fill="#000000"/>
	<path id="path" d="M29.7715 53C29.3395 53 29 52.6437 29 52.1902C29 51.7367 29.3395 51.3804 29.7715 51.3804C38.7064 51.3804 46.6381 45.4204 49.5084 36.5452C49.6447 36.1248 50.08 35.9 50.4805 36.0431C50.8811 36.1862 51.0953 36.6431 50.9589 37.0634C47.8878 46.5979 39.3611 53.0114 29.7715 53Z" fill-rule="nonzero" fill="#000000"/>
	<path id="path" d="M52.1902 30C51.7529 30 51.3804 29.6583 51.3804 29.2235C51.3312 20.2874 45.3727 12.366 36.545 9.50092C36.273 9.41217 36.0711 9.19104 36.0153 8.92078C35.9595 8.65057 36.0583 8.37238 36.2745 8.19092C36.4906 8.00946 36.7913 7.95239 37.0632 8.04114C46.5378 11.116 52.9514 19.6418 53 29.2235C53 29.6583 52.6437 30 52.1902 30Z" fill-rule="nonzero" fill="#000000"/>
	<path id="path" d="M8.76678 24C8.68958 24 8.59705 23.9838 8.51984 23.9514C8.32715 23.8833 8.16827 23.7373 8.07849 23.5458C7.98871 23.3544 7.9754 23.1332 8.0415 22.9315C11.1277 13.4114 19.6457 7 29.2285 7C29.6605 7 30 7.3562 30 7.80951C30 8.26288 29.6605 8.61902 29.2285 8.61902C20.2938 8.61902 12.3622 14.5771 9.492 23.4495C9.38403 23.7896 9.09082 24 8.76678 24Z" fill-rule="nonzero" fill="#000000"/>
</svg>
